HIERARCHY
ROOT Hips
{
	OFFSET 0.000000 83.214638 0.000000
	CHANNELS 6 Xposition Yposition Zposition Xrotation Yrotation Zrotation
	JOINT Pelvis
	{
		OFFSET 0.000000 0.000000 0.000000
		CHANNELS 3 Xrotation Yrotation Zrotation
		JOINT LeftUpLeg
		{
			OFFSET 8.479700 -4.795502 -0.379100
			CHANNELS 3 Xrotation Yrotation Zrotation
			JOINT LeftLeg
			{
				OFFSET 0.024144 -32.555107 0.112900
				CHANNELS 3 Xrotation Yrotation Zrotation
				JOINT LeftFoot
				{
					OFFSET -0.024144 -32.638630 -3.012600
					CHANNELS 3 Xrotation Yrotation Zrotation
					JOINT LeftToeBase
					{
						OFFSET 0.970200 -13.225400 11.864200
						CHANNELS 3 Xrotation Yrotation Zrotation
						End Site
						{
							OFFSET 0.000000 12.319262 0.000000
						}
					}
					JOINT LFootTongue
					{
						OFFSET 1.142400 -1.059800 6.665200
						CHANNELS 3 Xrotation Yrotation Zrotation
						End Site
						{
							OFFSET 0.000000 12.319262 0.000000
						}
					}
				}
				JOINT LeftPantLeg
				{
					OFFSET 0.918482 -16.533964 -2.284700
					CHANNELS 3 Xrotation Yrotation Zrotation
					End Site
					{
						OFFSET 0.350399 24.744368 0.000000
					}
				}
			}
		}
		JOINT RightUpLeg
		{
			OFFSET -8.479700 -4.795502 -0.379100
			CHANNELS 3 Xrotation Yrotation Zrotation
			JOINT RightLeg
			{
				OFFSET -0.023144 -32.555092 0.112900
				CHANNELS 3 Xrotation Yrotation Zrotation
				JOINT RightFoot
				{
					OFFSET 0.023144 -32.638641 -3.012700
					CHANNELS 3 Xrotation Yrotation Zrotation
					JOINT RightToeBase
					{
						OFFSET -0.970200 -13.225400 11.864200
						CHANNELS 3 Xrotation Yrotation Zrotation
						End Site
						{
							OFFSET 0.000000 12.319244 0.000000
						}
					}
					JOINT RFootTongue
					{
						OFFSET -1.142200 -1.059800 6.665200
						CHANNELS 3 Xrotation Yrotation Zrotation
						End Site
						{
							OFFSET 0.000000 12.319243 0.000000
						}
					}
				}
				JOINT RightPantLeg
				{
					OFFSET -0.919482 -16.533978 -2.284800
					CHANNELS 3 Xrotation Yrotation Zrotation
					End Site
					{
						OFFSET -0.350400 24.744419 0.000000
					}
				}
			}
		}
	}
	JOINT Spine
	{
		OFFSET 0.000000 7.722000 1.166200
		CHANNELS 3 Xrotation Yrotation Zrotation
		JOINT Spine1
		{
			OFFSET 0.000000 12.024101 0.248800
			CHANNELS 3 Xrotation Yrotation Zrotation
			JOINT Spine2
			{
				OFFSET 0.000000 11.502998 -0.491200
				CHANNELS 3 Xrotation Yrotation Zrotation
				JOINT Neck
				{
					OFFSET 0.000000 18.430702 -3.123100
					CHANNELS 3 Xrotation Yrotation Zrotation
					JOINT Head
					{
						OFFSET 0.000000 9.051102 1.034000
						CHANNELS 3 Xrotation Yrotation Zrotation
						JOINT HairB
						{
							OFFSET 0.208400 24.786102 24.822300
							CHANNELS 3 Xrotation Yrotation Zrotation
							End Site
							{
								OFFSET 0.000000 32.263779 0.000000
							}
						}
						JOINT HairA
						{
							OFFSET -7.081100 24.428299 23.196600
							CHANNELS 3 Xrotation Yrotation Zrotation
							End Site
							{
								OFFSET 0.000000 32.263779 0.000000
							}
						}
						JOINT Hat
						{
							OFFSET 16.728800 15.048294 -15.439601
							CHANNELS 3 Xrotation Yrotation Zrotation
							End Site
							{
								OFFSET 0.000000 32.263779 0.000000
							}
						}
					}
				}
				JOINT LeftShoulder
				{
					OFFSET 6.197800 13.665199 -4.064700
					CHANNELS 3 Xrotation Yrotation Zrotation
					JOINT LeftArm
					{
						OFFSET 7.778100 -0.187103 -1.709300
						CHANNELS 3 Xrotation Yrotation Zrotation
						JOINT LeftForeArm
						{
							OFFSET 22.049376 0.000000 0.000000
							CHANNELS 3 Xrotation Yrotation Zrotation
							JOINT LeftHand
							{
								OFFSET 23.009392 0.000000 0.000000
								CHANNELS 3 Xrotation Yrotation Zrotation
								JOINT LeftHandThumb1
								{
									OFFSET 3.507191 -2.063065 3.133727
									CHANNELS 3 Xrotation Yrotation Zrotation
									JOINT LeftHandThumb2
									{
										OFFSET 3.101337 -1.790558 1.790558
										CHANNELS 3 Xrotation Yrotation Zrotation
										JOINT LeftHandThumb3
										{
											OFFSET 3.058640 -1.765907 1.765906
											CHANNELS 3 Xrotation Yrotation Zrotation
											End Site
											{
												OFFSET -0.415260 3.926476 -0.049563
											}
										}
									}
								}
								JOINT LeftHandIndex1
								{
									OFFSET 11.334419 -0.901459 3.706815
									CHANNELS 3 Xrotation Yrotation Zrotation
									JOINT LeftHandIndex2
									{
										OFFSET 3.283112 0.000000 0.000000
										CHANNELS 3 Xrotation Yrotation Zrotation
										JOINT LeftHandIndex3
										{
											OFFSET 3.323853 0.000000 0.000000
											CHANNELS 3 Xrotation Yrotation Zrotation
											End Site
											{
												OFFSET -1.135597 3.097809 0.402452
											}
										}
									}
								}
								JOINT LeftHandMiddle1
								{
									OFFSET 11.335861 0.000000 0.000000
									CHANNELS 3 Xrotation Yrotation Zrotation
									JOINT LeftHandMiddle2
									{
										OFFSET 3.410492 0.000000 0.000000
										CHANNELS 3 Xrotation Yrotation Zrotation
										JOINT LeftHandMiddle3
										{
											OFFSET 3.312172 0.000000 0.000000
											CHANNELS 3 Xrotation Yrotation Zrotation
											End Site
											{
												OFFSET -1.150200 3.080154 0.400270
											}
										}
									}
								}
								JOINT LeftHandRing1
								{
									OFFSET 11.514786 -0.013176 -3.003090
									CHANNELS 3 Xrotation Yrotation Zrotation
									JOINT LeftHandRing2
									{
										OFFSET 3.053307 0.000000 0.000000
										CHANNELS 3 Xrotation Yrotation Zrotation
										JOINT LeftHandRing3
										{
											OFFSET 3.295807 0.000000 0.000000
											CHANNELS 3 Xrotation Yrotation Zrotation
											End Site
											{
												OFFSET -1.281006 3.013344 0.375733
											}
										}
									}
								}
								JOINT LeftHandPinky1
								{
									OFFSET 10.518692 -0.960396 -5.730441
									CHANNELS 3 Xrotation Yrotation Zrotation
									JOINT LeftHandPinky2
									{
										OFFSET 2.861649 0.000000 0.000000
										CHANNELS 3 Xrotation Yrotation Zrotation
										JOINT LeftHandPinky3
										{
											OFFSET 2.863380 0.000000 0.000000
											CHANNELS 3 Xrotation Yrotation Zrotation
											End Site
											{
												OFFSET -0.843597 2.711159 0.369971
											}
										}
									}
								}
							}
							JOINT LSleeve
							{
								OFFSET 6.676277 -0.344902 -1.011730
								CHANNELS 3 Xrotation Yrotation Zrotation
								End Site
								{
									OFFSET 0.000000 14.885353 0.000000
								}
							}
						}
					}
				}
				JOINT RightShoulder
				{
					OFFSET -6.197800 13.665199 -4.064700
					CHANNELS 3 Xrotation Yrotation Zrotation
					JOINT RightArm
					{
						OFFSET -7.778100 -0.187103 -1.709300
						CHANNELS 3 Xrotation Yrotation Zrotation
						JOINT RightForeArm
						{
							OFFSET -22.049376 0.000000 0.000000
							CHANNELS 3 Xrotation Yrotation Zrotation
							JOINT RightHand
							{
								OFFSET -23.009392 0.000000 0.000000
								CHANNELS 3 Xrotation Yrotation Zrotation
								JOINT RightHandThumb1
								{
									OFFSET -3.507191 -2.063065 3.133727
									CHANNELS 3 Xrotation Yrotation Zrotation
									JOINT RightHandThumb2
									{
										OFFSET -3.101337 -1.790558 1.790558
										CHANNELS 3 Xrotation Yrotation Zrotation
										JOINT RightHandThumb3
										{
											OFFSET -3.058640 -1.765907 1.765906
											CHANNELS 3 Xrotation Yrotation Zrotation
											End Site
											{
												OFFSET 0.415260 3.926476 -0.049563
											}
										}
									}
								}
								JOINT RightHandIndex1
								{
									OFFSET -11.334419 -0.901459 3.706815
									CHANNELS 3 Xrotation Yrotation Zrotation
									JOINT RightHandIndex2
									{
										OFFSET -3.283112 0.000000 0.000000
										CHANNELS 3 Xrotation Yrotation Zrotation
										JOINT RightHandIndex3
										{
											OFFSET -3.323853 0.000000 0.000000
											CHANNELS 3 Xrotation Yrotation Zrotation
											End Site
											{
												OFFSET 1.135597 3.097809 0.402452
											}
										}
									}
								}
								JOINT RightHandMiddle1
								{
									OFFSET -11.335861 0.000000 0.000000
									CHANNELS 3 Xrotation Yrotation Zrotation
									JOINT RightHandMiddle2
									{
										OFFSET -3.410492 0.000000 0.000000
										CHANNELS 3 Xrotation Yrotation Zrotation
										JOINT RightHandMiddle3
										{
											OFFSET -3.312172 0.000000 0.000000
											CHANNELS 3 Xrotation Yrotation Zrotation
											End Site
											{
												OFFSET 1.150200 3.080154 0.400270
											}
										}
									}
								}
								JOINT RightHandRing1
								{
									OFFSET -11.514786 -0.013176 -3.003090
									CHANNELS 3 Xrotation Yrotation Zrotation
									JOINT RightHandRing2
									{
										OFFSET -3.053307 0.000000 0.000000
										CHANNELS 3 Xrotation Yrotation Zrotation
										JOINT RightHandRing3
										{
											OFFSET -3.295807 0.000000 0.000000
											CHANNELS 3 Xrotation Yrotation Zrotation
											End Site
											{
												OFFSET 1.281006 3.013344 0.375733
											}
										}
									}
								}
								JOINT RightHandPinky1
								{
									OFFSET -10.518692 -0.960396 -5.730441
									CHANNELS 3 Xrotation Yrotation Zrotation
									JOINT RightHandPinky2
									{
										OFFSET -2.861649 0.000000 0.000000
										CHANNELS 3 Xrotation Yrotation Zrotation
										JOINT RightHandPinky3
										{
											OFFSET -2.863380 0.000000 0.000000
											CHANNELS 3 Xrotation Yrotation Zrotation
											End Site
											{
												OFFSET 0.843597 2.711159 0.369971
											}
										}
									}
								}
							}
							JOINT RSleeve
							{
								OFFSET -6.676277 -0.344902 -1.011730
								CHANNELS 3 Xrotation Yrotation Zrotation
								End Site
								{
									OFFSET 0.000000 14.885353 0.000000
								}
							}
						}
					}
				}
				JOINT Backpack
				{
					OFFSET 0.000000 -2.471497 36.677502
					CHANNELS 3 Xrotation Yrotation Zrotation
					End Site
					{
						OFFSET 0.000000 20.427315 0.000000
					}
				}
				JOINT Hood
				{
					OFFSET 0.000000 18.754097 -10.431000
					CHANNELS 3 Xrotation Yrotation Zrotation
					JOINT Hood1
					{
						OFFSET 0.000000 -5.011002 -7.685901
						CHANNELS 3 Xrotation Yrotation Zrotation
						End Site
						{
							OFFSET 0.000000 9.175140 0.000000
						}
					}
				}
				JOINT LHoodieString
				{
					OFFSET 5.250500 16.397697 3.089900
					CHANNELS 3 Xrotation Yrotation Zrotation
					JOINT LHoodieString1
					{
						OFFSET 0.257700 -6.364304 3.694600
						CHANNELS 3 Xrotation Yrotation Zrotation
						JOINT LHoodieString2
						{
							OFFSET 0.000000 -9.643799 2.679100
							CHANNELS 3 Xrotation Yrotation Zrotation
							End Site
							{
								OFFSET 0.000000 10.009018 0.000000
							}
						}
					}
				}
				JOINT RHoodieString
				{
					OFFSET -5.250500 16.397697 3.089900
					CHANNELS 3 Xrotation Yrotation Zrotation
					JOINT RHoodieString1
					{
						OFFSET -0.257700 -6.364304 3.694600
						CHANNELS 3 Xrotation Yrotation Zrotation
						JOINT RHoodieString2
						{
							OFFSET 0.000000 -9.643799 2.679100
							CHANNELS 3 Xrotation Yrotation Zrotation
							End Site
							{
								OFFSET 0.000000 10.009018 0.000000
							}
						}
					}
				}
			}
			JOINT LBackpack_Strap
			{
				OFFSET 15.223200 -7.719803 -6.610900
				CHANNELS 3 Xrotation Yrotation Zrotation
				End Site
				{
					OFFSET 0.000000 16.040596 0.000000
				}
			}
			JOINT RBackpack_Strap
			{
				OFFSET -15.223000 -7.719803 -6.610900
				CHANNELS 3 Xrotation Yrotation Zrotation
				End Site
				{
					OFFSET 0.000000 16.040596 0.000000
				}
			}
		}
	}
	JOINT BoyFacialAnim_Joint
	{
		OFFSET 1.000000 -82.208099 -1.550900
		CHANNELS 3 Xrotation Yrotation Zrotation
		End Site
		{
			OFFSET 0.000000 30.012791 0.000000
		}
	}
}
MOTION
Frames: 4
Frame Time: 0.033333
0.834019 80.247894 17.118134 -36.724892 33.204278 1.646169 0.000003 -0.000001 0.000000 -9.910120 8.032688 24.888752 38.445390 -59.561217 -7.489037 12.682643 -29.286823 -2.296736 -0.000000 -0.000001 -0.000001 -0.000000 -0.000001 -0.000001 -0.000000 -0.000001 -0.000001 -46.739152 -9.104169 -19.201395 27.999375 -5.345159 -0.252802 -4.169836 0.264449 -4.682700 0.000000 0.000000 0.000000 0.000000 0.000000 0.000000 -0.000000 -0.000001 0.000000 4.337690 -2.891166 1.058979 8.859299 -5.647404 2.019904 8.855820 -5.653807 2.023051 10.786838 1.408506 -6.906003 -4.197197 -7.129468 19.149861 -0.000000 0.000001 0.000001 -0.000000 0.000001 0.000001 -0.000000 0.000001 0.000001 1.354165 -8.899874 6.830563 -6.699408 -47.330086 -61.965197 -0.000211 -83.672167 -0.000178 -8.466481 -15.596313 -2.455079 -5.051486 6.408293 11.573458 3.318247 19.389845 -1.530431 0.000000 -0.000001 -0.000001 5.582797 6.758181 -79.098146 5.582793 6.758174 -79.098133 -0.000001 0.000000 -0.000000 4.009690 6.256066 -65.283631 5.413961 6.723685 -77.659797 0.000001 0.000000 -0.000003 4.166612 6.325492 -66.715676 5.609847 6.763299 -79.327921 0.000002 0.000002 -0.000000 10.180620 7.289026 -83.627197 6.126808 2.753639 -83.713169 -0.000000 0.000005 0.000002 -0.000000 0.000001 0.000000 0.028836 -6.777988 3.385132 -26.604840 -20.610893 47.348531 -0.000001 0.000300 0.000005 -6.655653 -8.634221 -6.894072 -0.863530 -8.712314 -7.280226 11.820078 -16.133207 1.068352 0.000000 -0.000000 0.000001 4.792395 -6.606916 71.882803 4.792397 -6.606912 71.882830 -0.000003 -0.000001 -0.000000 3.637074 -6.111962 61.480773 4.933066 -6.650941 73.101343 -0.000001 -0.000000 -0.000000 4.065869 -6.324840 65.437966 5.484499 -6.793046 77.809870 0.000002 -0.000001 0.000002 6.292860 -6.917410 84.574517 6.292876 -6.917431 84.574537 0.000002 -0.000002 -0.000005 -0.000001 -0.000000 0.000002 -0.000000 -0.000002 -0.000000 -0.000000 -0.000002 -0.000000 -0.000000 -0.000002 -0.000000 -0.000000 -0.000002 -0.000000 -0.000000 -0.000002 -0.000000 -0.000001 -0.000002 0.000001 -0.000000 -0.000002 -0.000000 -0.000000 -0.000002 -0.000000 -0.000001 -0.000002 0.000001 -0.000001 0.000000 -0.000001 -0.000001 0.000000 -0.000001 0.000003 -0.000001 0.000000 
0.971157 80.543922 18.362926 -35.011509 32.665284 2.617937 -0.000001 -0.000003 0.000001 -9.314775 8.647988 23.040895 37.308754 -59.226210 -7.413960 11.828842 -29.343128 -2.271097 -0.000001 0.000001 -0.000001 -0.000001 0.000001 -0.000002 0.000000 0.000000 0.000001 -38.597676 -11.859001 -15.868066 35.653868 -1.852439 -0.092066 -5.355374 -0.288119 1.474864 -0.000001 0.000000 -0.000000 -0.000001 0.000000 -0.000000 -0.000000 0.000001 -0.000000 3.869866 -2.435911 0.718545 7.899775 -4.703032 1.557892 7.894626 -4.713315 1.557247 10.427246 1.076786 -7.243587 -5.048935 -8.791884 18.272185 -0.000000 -0.000000 0.000000 -0.000000 -0.000000 0.000000 -0.000000 -0.000000 0.000000 1.296382 -8.619005 5.910456 -5.802536 -47.490121 -64.069162 -0.000065 -81.825946 -0.000072 -14.164625 -12.342844 -2.707836 -5.051482 6.408294 11.573453 3.318248 19.389843 -1.530430 0.000001 -0.000000 -0.000001 5.582799 6.758184 -79.098146 5.582791 6.758173 -79.098133 -0.000001 0.000001 -0.000002 4.009693 6.256066 -65.283638 5.413957 6.723686 -77.659804 0.000003 -0.000000 -0.000005 4.166620 6.325488 -66.715683 5.609846 6.763296 -79.327921 -0.000002 -0.000001 -0.000000 10.180623 7.289026 -83.627204 6.126804 2.753635 -83.713169 -0.000001 0.000002 -0.000002 0.000003 0.000001 0.000002 -0.160882 -7.654300 1.917670 -25.891705 -21.921839 49.170143 0.000001 0.000005 -0.000001 -7.269854 -10.072728 -8.683994 -0.863522 -8.712314 -7.280229 11.820074 -16.133202 1.068351 0.000002 0.000001 0.000004 4.792391 -6.606912 71.882803 4.792394 -6.606919 71.882830 -0.000003 0.000003 0.000002 3.637072 -6.111961 61.480766 4.933065 -6.650942 73.101343 0.000003 0.000001 -0.000002 4.065867 -6.324840 65.437973 5.484499 -6.793046 77.809870 0.000001 0.000001 0.000000 6.292859 -6.917407 84.574517 6.292880 -6.917429 84.574537 0.000001 0.000000 -0.000002 -0.000000 -0.000003 -0.000004 -0.000001 -0.000001 -0.000000 -0.000001 -0.000001 -0.000000 -0.000001 -0.000001 -0.000000 -0.000001 -0.000001 -0.000000 -0.000001 -0.000001 0.000001 -0.000001 0.000001 0.000000 -0.000001 -0.000001 -0.000000 -0.000001 -0.000001 0.000001 -0.000001 0.000001 0.000000 -0.000000 0.000000 -0.000001 -0.000000 0.000000 -0.000001 -0.000001 -0.000003 0.000001 
1.136572 80.716972 19.389648 -32.472277 32.467475 3.365242 -0.000001 -0.000000 0.000001 -9.711065 8.804874 20.706543 36.519850 -58.673777 -7.241196 11.167546 -29.412680 -2.223007 -0.000000 0.000001 -0.000001 -0.000000 0.000001 -0.000001 -0.000000 -0.000002 -0.000001 -31.308805 -13.111904 -12.683064 44.046312 -3.126922 -0.153086 -9.108032 -0.710213 4.079457 -0.000000 -0.000000 0.000000 -0.000000 -0.000000 0.000000 0.000000 0.000000 -0.000000 3.158182 -2.041950 0.474372 6.428037 -4.044323 0.999729 6.420621 -4.055096 1.005645 10.179477 0.847043 -7.728399 -5.232358 -9.968463 17.300229 -0.000000 -0.000001 -0.000000 -0.000000 -0.000001 -0.000000 -0.000000 -0.000001 -0.000000 1.230915 -8.320406 5.196780 -3.802097 -47.860071 -65.097440 -0.000154 -80.916104 -0.000146 -21.106574 -9.237150 -1.335554 -5.051487 6.408294 11.573458 3.318245 19.389842 -1.530429 0.000002 -0.000000 -0.000000 5.582799 6.758184 -79.098146 5.582799 6.758178 -79.098139 -0.000002 -0.000001 -0.000000 4.009688 6.256067 -65.283631 5.413955 6.723686 -77.659804 -0.000000 0.000000 -0.000001 4.166616 6.325492 -66.715676 5.609844 6.763295 -79.327921 -0.000001 0.000003 0.000000 10.180624 7.289023 -83.627197 6.126808 2.753641 -83.713169 -0.000002 0.000001 -0.000000 0.000003 -0.000001 -0.000001 -0.395721 -8.171709 -0.043889 -25.001112 -23.028574 51.462098 -0.000005 0.027347 0.000022 -7.330203 -10.392596 -9.219996 -0.863528 -8.712315 -7.280229 11.820073 -16.133202 1.068349 -0.000001 -0.000000 -0.000000 4.792390 -6.606912 71.882803 4.792392 -6.606914 71.882830 -0.000001 0.000001 0.000004 3.637071 -6.111960 61.480773 4.933062 -6.650944 73.101343 -0.000000 0.000000 -0.000000 4.065870 -6.324842 65.437973 5.484500 -6.793037 77.809870 0.000001 -0.000000 0.000000 6.292855 -6.917405 84.574517 6.292880 -6.917431 84.574537 0.000003 -0.000001 0.000000 0.000001 -0.000000 -0.000000 -0.000000 -0.000001 0.000000 -0.000000 -0.000001 0.000000 -0.000000 -0.000001 0.000000 -0.000000 -0.000001 0.000000 -0.000000 -0.000001 0.000000 -0.000000 0.000001 -0.000001 -0.000000 -0.000001 0.000000 -0.000000 -0.000001 0.000000 -0.000000 0.000001 -0.000001 -0.000002 0.000001 0.000000 -0.000002 0.000001 0.000000 -0.000001 -0.000000 0.000001 
1.377176 80.752197 20.009750 -28.861944 32.167715 3.570596 -0.000001 0.000000 0.000001 -11.277081 8.584780 17.854651 36.158741 -57.583720 -6.911775 10.717896 -29.459839 -2.041219 -0.000001 0.000001 -0.000000 -0.000001 0.000001 -0.000000 -0.000000 0.000001 0.000000 -24.849784 -13.767563 -9.444585 50.850263 -7.281471 -0.375959 -11.335147 -1.279641 3.663337 0.000000 -0.000000 0.000000 0.000000 -0.000000 0.000000 0.000000 0.000000 -0.000001 2.244702 -1.724348 0.251005 4.569438 -3.515312 0.269658 4.563979 -3.521994 0.278210 10.035344 0.713086 -8.151424 -5.050054 -10.705357 16.603502 -0.000001 0.000001 -0.000000 -0.000001 0.000001 -0.000000 -0.000001 0.000001 -0.000000 1.134696 -7.639768 5.049288 -1.838990 -48.798751 -65.589685 0.000245 -80.445681 0.000267 -26.223871 -7.386809 0.622485 -5.051484 6.408294 11.573464 3.318246 19.389843 -1.530432 -0.000001 -0.000001 0.000000 5.582797 6.758184 -79.098139 5.582794 6.758175 -79.098133 0.000001 0.000000 -0.000002 4.009691 6.256068 -65.283624 5.413955 6.723683 -77.659797 0.000001 -0.000002 -0.000000 4.166615 6.325492 -66.715669 5.609844 6.763299 -79.327921 -0.000000 0.000001 -0.000002 10.180623 7.289026 -83.627197 6.126806 2.753642 -83.713169 0.000000 0.000001 -0.000000 0.000001 0.000001 0.000003 -0.597993 -8.391483 -1.796502 -23.716273 -23.507266 53.927376 -0.000007 0.071589 0.000016 -6.793712 -9.794720 -8.015182 -0.863526 -8.712315 -7.280225 11.820073 -16.133204 1.068358 -0.000002 0.000001 -0.000002 4.792397 -6.606915 71.882810 4.792397 -6.606912 71.882830 -0.000004 0.000003 0.000001 3.637074 -6.111960 61.480773 4.933064 -6.650942 73.101336 -0.000001 0.000002 0.000000 4.065869 -6.324841 65.437966 5.484495 -6.793044 77.809870 -0.000003 -0.000000 0.000004 6.292860 -6.917409 84.574524 6.292881 -6.917427 84.574537 -0.000002 -0.000003 -0.000000 0.000001 -0.000000 0.000002 -0.000001 -0.000002 -0.000000 -0.000001 -0.000002 -0.000000 -0.000001 -0.000002 -0.000000 -0.000001 -0.000002 -0.000000 -0.000001 -0.000002 0.000001 -0.000000 -0.000001 0.000000 -0.000001 -0.000002 -0.000000 -0.000001 -0.000002 0.000001 -0.000000 -0.000001 0.000000 0.000001 0.000002 -0.000000 0.000001 0.000002 -0.000000 -0.000001 0.000000 0.000001 
